HIERARCHY
ROOT ding_shaowen:Solving:Hips
{
	OFFSET 0.000000 0.000000 0.000000
	CHANNELS 6 Xposition Yposition Zposition Xrotation Yrotation Zrotation
	JOINT ding_shaowen:Solving:Spine
	{
		OFFSET 0.000000 -12.793800 2.116599
		CHANNELS 6 Xposition Yposition Zposition Xrotation Yrotation Zrotation
		JOINT ding_shaowen:Solving:Spine1
		{
			OFFSET 0.000000 -8.721180 1.537782
			CHANNELS 6 Xposition Yposition Zposition Xrotation Yrotation Zrotation
			JOINT ding_shaowen:Solving:Spine2
			{
				OFFSET 0.000000 -8.822016 0.771827
				CHANNELS 6 Xposition Yposition Zposition Xrotation Yrotation Zrotation
				JOINT ding_shaowen:Solving:Spine3
				{
					OFFSET 0.000000 -8.855719 0.000000
					CHANNELS 6 Xposition Yposition Zposition Xrotation Yrotation Zrotation
					JOINT ding_shaowen:Solving:Neck
					{
						OFFSET 0.000000 -11.385921 -1.138590
						CHANNELS 6 Xposition Yposition Zposition Xrotation Yrotation Zrotation
						JOINT ding_shaowen:Solving:Neck1
						{
							OFFSET 0.000000 -6.705494 -0.586653
							CHANNELS 6 Xposition Yposition Zposition Xrotation Yrotation Zrotation
							JOINT ding_shaowen:Solving:Head
							{
								OFFSET 0.000000 -6.628845 -1.168845
								CHANNELS 6 Xposition Yposition Zposition Xrotation Yrotation Zrotation
								JOINT ding_shaowen:Solving:HeadEnd
								{
									OFFSET 0.000000 -9.728077 0.000002
									CHANNELS 6 Xposition Yposition Zposition Xrotation Yrotation Zrotation
									End Site
									{
										OFFSET 0.000000 -9.728081 0.000002
									}
								}
							}
						}
					}
					JOINT ding_shaowen:Solving:RightShoulder
					{
						OFFSET 0.000000 -8.132801 -5.345683
						CHANNELS 6 Xposition Yposition Zposition Xrotation Yrotation Zrotation
						JOINT ding_shaowen:Solving:RightArm
						{
							OFFSET -20.692947 -0.000008 0.000000
							CHANNELS 6 Xposition Yposition Zposition Xrotation Yrotation Zrotation
							JOINT ding_shaowen:Solving:RightForeArm
							{
								OFFSET -30.243591 -0.000008 0.000000
								CHANNELS 6 Xposition Yposition Zposition Xrotation Yrotation Zrotation
								JOINT ding_shaowen:Solving:RightHand
								{
									OFFSET -24.757149 -0.000008 0.000000
									CHANNELS 6 Xposition Yposition Zposition Xrotation Yrotation Zrotation
									JOINT ding_shaowen:Solving:RightHandThumb1
									{
										OFFSET -3.599983 2.820858 -2.676913
										CHANNELS 6 Xposition Yposition Zposition Xrotation Yrotation Zrotation
										End Site
										{
											OFFSET -5.243469 0.000000 -5.291954
										}
									}
									JOINT ding_shaowen:Solving:RightHandMiddle1
									{
										OFFSET -9.599960 -0.000004 0.061538
										CHANNELS 6 Xposition Yposition Zposition Xrotation Yrotation Zrotation
										End Site
										{
											OFFSET -7.449745 -0.000004 0.000000
										}
									}
								}
							}
						}
					}
					JOINT ding_shaowen:Solving:LeftShoulder
					{
						OFFSET 0.000000 -8.132801 -5.345683
						CHANNELS 6 Xposition Yposition Zposition Xrotation Yrotation Zrotation
						JOINT ding_shaowen:Solving:LeftArm
						{
							OFFSET 20.692947 -0.000008 0.000000
							CHANNELS 6 Xposition Yposition Zposition Xrotation Yrotation Zrotation
							JOINT ding_shaowen:Solving:LeftForeArm
							{
								OFFSET 30.243591 -0.000008 0.000000
								CHANNELS 6 Xposition Yposition Zposition Xrotation Yrotation Zrotation
								JOINT ding_shaowen:Solving:LeftHand
								{
									OFFSET 24.757149 -0.000008 0.000000
									CHANNELS 6 Xposition Yposition Zposition Xrotation Yrotation Zrotation
									JOINT ding_shaowen:Solving:LeftHandThumb1
									{
										OFFSET 3.599983 2.820858 -2.676913
										CHANNELS 6 Xposition Yposition Zposition Xrotation Yrotation Zrotation
										End Site
										{
											OFFSET 5.243469 0.000000 -5.291954
										}
									}
									JOINT ding_shaowen:Solving:LeftHandMiddle1
									{
										OFFSET 9.599960 -0.000004 0.061538
										CHANNELS 6 Xposition Yposition Zposition Xrotation Yrotation Zrotation
										End Site
										{
											OFFSET 7.449745 -0.000004 0.000000
										}
									}
								}
							}
						}
					}
				}
			}
		}
	}
	JOINT ding_shaowen:Solving:RightUpLeg
	{
		OFFSET -11.038935 0.000000 0.000000
		CHANNELS 6 Xposition Yposition Zposition Xrotation Yrotation Zrotation
		JOINT ding_shaowen:Solving:RightLeg
		{
			OFFSET 0.000000 45.093018 -0.000006
			CHANNELS 6 Xposition Yposition Zposition Xrotation Yrotation Zrotation
			JOINT ding_shaowen:Solving:RightFoot
			{
				OFFSET 0.000000 38.174210 -0.000006
				CHANNELS 6 Xposition Yposition Zposition Xrotation Yrotation Zrotation
				JOINT ding_shaowen:Solving:RightForeFoot
				{
					OFFSET 0.000000 3.459915 -0.000000
					CHANNELS 6 Xposition Yposition Zposition Xrotation Yrotation Zrotation
					JOINT ding_shaowen:Solving:RightToeBase
					{
						OFFSET 0.000000 0.000000 -13.550137
						CHANNELS 6 Xposition Yposition Zposition Xrotation Yrotation Zrotation
						JOINT ding_shaowen:Solving:RightToeBaseEnd
						{
							OFFSET 0.000000 0.000000 -3.436555
							CHANNELS 6 Xposition Yposition Zposition Xrotation Yrotation Zrotation
							End Site
							{
								OFFSET 0.000000 -3.436554 0.000000
							}
						}
					}
				}
			}
		}
	}
	JOINT ding_shaowen:Solving:LeftUpLeg
	{
		OFFSET 11.038935 0.000000 0.000000
		CHANNELS 6 Xposition Yposition Zposition Xrotation Yrotation Zrotation
		JOINT ding_shaowen:Solving:LeftLeg
		{
			OFFSET 0.000000 45.093018 -0.000006
			CHANNELS 6 Xposition Yposition Zposition Xrotation Yrotation Zrotation
			JOINT ding_shaowen:Solving:LeftFoot
			{
				OFFSET 0.000000 38.174210 -0.000006
				CHANNELS 6 Xposition Yposition Zposition Xrotation Yrotation Zrotation
				JOINT ding_shaowen:Solving:LeftForeFoot
				{
					OFFSET 0.000000 3.459915 -0.000000
					CHANNELS 6 Xposition Yposition Zposition Xrotation Yrotation Zrotation
					JOINT ding_shaowen:Solving:LeftToeBase
					{
						OFFSET 0.000000 0.000000 -13.550137
						CHANNELS 6 Xposition Yposition Zposition Xrotation Yrotation Zrotation
						JOINT ding_shaowen:Solving:LeftToeBaseEnd
						{
							OFFSET 0.000000 0.000000 -4.223781
							CHANNELS 6 Xposition Yposition Zposition Xrotation Yrotation Zrotation
							End Site
							{
								OFFSET 0.000000 -4.223778 0.000000
							}
						}
					}
				}
			}
		}
	}
}
MOTION
Frames: 5
Frame Time: 0.041667
4.955487 -90.301834 -94.850204 85.490343 -8.329686 1.340120 -0.000003 -12.793817 2.116604 11.584246 -0.450428 -2.327296 0.000001 -8.721171 1.537799 -1.746572 0.038135 -0.391575 0.000000 -8.822024 0.771816 -5.198751 -0.009750 -0.024070 0.000003 -8.855708 0.000016 -0.862453 0.277689 0.065924 -0.000006 -11.385926 -1.138598 3.197410 1.013747 -1.163718 -0.000001 -6.705486 -0.586643 -0.826217 3.284613 0.136715 -0.000002 -6.628839 -1.168843 4.008478 0.322651 -0.342869 -0.000000 -9.728092 0.000023 -0.000001 0.000000 -0.000000 -0.000006 -8.132816 -5.345695 0.000008 19.181516 2.268554 -20.692955 -0.000014 -0.000006 2.240287 -25.366648 -86.490774 -30.243618 -0.000010 -0.000007 0.339835 -17.321723 0.101226 -24.757139 -0.000010 -0.000003 -1.726898 13.431035 7.395695 -3.600002 2.820848 -2.676924 0.000002 -0.000000 0.000005 -9.599957 -0.000003 0.061526 -0.000002 -0.000001 0.000004 -0.000007 -8.132820 -5.345695 0.000006 -17.507371 -5.768210 20.692947 0.000025 0.000018 -9.408214 17.832012 95.338021 30.243612 -0.000009 -0.000010 10.727980 2.107922 -0.399276 24.757156 -0.000006 -0.000007 0.023203 -0.319227 4.158048 3.599975 2.820853 -2.676911 -0.000001 -0.000002 -0.000001 9.599936 0.000004 0.061528 0.000000 0.000003 -0.000002 -11.038938 0.000003 0.000010 9.414014 19.972829 1.425575 0.000000 45.093018 0.000011 -2.802849 0.000001 0.000001 -0.000001 38.174198 -0.000023 13.455870 7.223590 0.136911 -0.000001 3.459915 0.000001 -0.000003 -0.000002 -0.000000 0.000001 -0.000005 -13.550139 -19.452937 -0.000002 -0.000001 -0.000003 0.000007 -3.436566 -0.000001 -0.000004 -0.000000 11.038933 0.000001 -0.000002 7.437175 -4.277846 -7.065769 -0.000006 45.093010 -0.000034 -4.032312 0.000001 0.000001 -0.000005 38.174187 -0.000001 15.328642 -12.381123 4.609594 0.000010 3.459915 0.000006 -0.000001 0.000001 -0.000001 -0.000009 0.000009 -13.550149 2.891017 0.000004 0.000000 -0.000004 0.000014 -4.223786 -0.000003 -0.000002 0.000001 
4.959590 -90.304626 -94.856552 85.483670 -8.340102 1.327936 -0.000001 -12.793797 2.116597 11.563118 -0.458302 -2.319588 0.000001 -8.721195 1.537764 -1.750440 0.036546 -0.387162 0.000002 -8.822018 0.771822 -5.195801 -0.053247 -0.029644 -0.000001 -8.855704 -0.000015 -0.860029 0.268552 0.048013 0.000002 -11.385915 -1.138578 3.210475 1.025794 -1.159259 -0.000003 -6.705518 -0.586645 -0.807221 3.370598 0.121785 -0.000001 -6.628869 -1.168854 4.058614 0.338072 -0.379710 0.000000 -9.728069 0.000016 0.000001 0.000000 0.000000 0.000001 -8.132805 -5.345676 0.000010 19.023113 2.121841 -20.692949 -0.000003 -0.000018 2.541335 -26.646745 -86.713206 -30.243580 -0.000017 0.000005 0.818180 -17.583526 0.247229 -24.757172 -0.000004 0.000008 -1.685861 13.553242 7.158476 -3.599996 2.820850 -2.676927 0.000001 -0.000003 0.000003 -9.599965 0.000001 0.061539 0.000000 -0.000001 0.000003 0.000002 -8.132809 -5.345677 0.000007 -17.328229 -5.639656 20.692955 -0.000035 -0.000010 -9.031625 18.122619 95.705130 30.243603 -0.000003 0.000003 10.042491 2.506587 -0.443757 24.757145 -0.000004 0.000001 -0.012254 0.130440 5.363127 3.599971 2.820850 -2.676908 0.000002 -0.000002 0.000003 9.599946 -0.000006 0.061543 0.000000 0.000004 0.000001 -11.038938 0.000001 -0.000005 9.409451 20.023026 1.437476 -0.000006 45.093010 0.000001 -2.795337 0.000001 0.000001 0.000000 38.174225 -0.000025 13.466703 7.188665 0.150837 0.000005 3.459916 0.000016 0.000000 0.000002 -0.000002 -0.000006 0.000018 -13.550125 -19.385996 -0.000002 -0.000001 0.000002 -0.000000 -3.436546 -0.000001 -0.000004 0.000001 11.038933 -0.000013 -0.000005 7.427528 -4.245763 -7.054181 -0.000006 45.093014 -0.000005 -4.003900 -0.000002 0.000001 -0.000002 38.174213 -0.000007 15.352646 -12.381216 4.548420 -0.000006 3.459915 -0.000001 0.000000 -0.000000 -0.000000 0.000006 0.000000 -13.550146 2.903027 0.000000 0.000000 0.000006 0.000000 -4.223783 0.000002 0.000001 -0.000001 
4.958031 -90.310852 -94.862656 85.466738 -8.365052 1.320709 -0.000001 -12.793810 2.116599 11.560158 -0.480026 -2.312828 0.000001 -8.721172 1.537779 -1.749780 0.035609 -0.383714 0.000002 -8.822008 0.771817 -5.198133 -0.095440 -0.028923 -0.000004 -8.855719 -0.000005 -0.869525 0.274806 0.031515 0.000000 -11.385940 -1.138612 3.223764 1.018737 -1.159210 -0.000000 -6.705467 -0.586644 -0.783983 3.473281 0.102768 0.000001 -6.628820 -1.168840 4.131915 0.357151 -0.426295 0.000000 -9.728115 0.000004 -0.000001 -0.000000 0.000000 -0.000001 -8.132786 -5.345700 0.000007 18.860393 1.999636 -20.692951 -0.000000 -0.000008 2.857470 -27.647779 -86.858867 -30.243578 -0.000020 -0.000004 2.549615 -17.927694 0.785337 -24.757143 -0.000004 0.000006 -1.627260 13.776644 6.803061 -3.600014 2.820862 -2.676902 0.000003 -0.000010 -0.000001 -9.599958 0.000009 0.061546 -0.000000 0.000002 0.000003 -0.000002 -8.132816 -5.345701 0.000004 -17.201225 -5.523329 20.692966 -0.000030 -0.000010 -8.578533 18.346464 95.814187 30.243593 -0.000007 0.000026 10.747497 3.471929 -0.658592 24.757149 -0.000009 0.000016 0.040620 -0.378794 6.122155 3.600011 2.820860 -2.676903 0.000001 0.000014 -0.000002 9.599974 0.000005 0.061556 0.000000 0.000001 -0.000003 -11.038937 -0.000014 -0.000006 9.412901 20.052143 1.437139 -0.000002 45.092991 -0.000015 -2.775482 0.000002 0.000000 -0.000001 38.174210 -0.000016 13.480095 7.199992 0.199214 -0.000013 3.459923 0.000016 -0.000004 0.000004 0.000000 -0.000002 0.000003 -13.550143 -19.440006 0.000001 0.000000 0.000014 -0.000000 -3.436564 -0.000000 0.000002 -0.000000 11.038938 -0.000019 0.000024 7.418610 -4.205303 -7.054443 -0.000004 45.092999 -0.000013 -3.961176 -0.000000 0.000001 -0.000004 38.174213 0.000008 15.333997 -12.391660 4.533410 0.000007 3.459923 -0.000005 -0.000001 0.000003 -0.000001 0.000015 -0.000004 -13.550140 2.988419 0.000004 -0.000001 0.000003 -0.000001 -4.223788 -0.000001 -0.000005 -0.000000 
4.950618 -90.320435 -94.868225 85.448576 -8.398055 1.311437 -0.000000 -12.793779 2.116590 11.568999 -0.503730 -2.302040 -0.000001 -8.721184 1.537777 -1.744402 0.035261 -0.379891 0.000000 -8.822026 0.771840 -5.199810 -0.095695 -0.036784 0.000002 -8.855725 0.000020 -0.880407 0.275464 0.030419 0.000004 -11.385951 -1.138575 3.222986 1.041405 -1.126071 0.000002 -6.705495 -0.586640 -0.767302 3.538623 0.060115 -0.000002 -6.628855 -1.168859 4.168245 0.379132 -0.499361 0.000000 -9.728115 0.000007 0.000001 -0.000000 0.000000 0.000004 -8.132805 -5.345675 0.000006 18.722025 1.859132 -20.692945 -0.000010 -0.000001 3.145828 -28.085403 -86.822906 -30.243576 -0.000008 -0.000016 6.008245 -18.439682 1.906804 -24.757158 -0.000005 -0.000001 -1.265085 13.823977 5.280498 -3.600004 2.820844 -2.676926 0.000002 -0.000007 0.000003 -9.599959 -0.000001 0.061517 -0.000001 -0.000001 0.000001 0.000002 -8.132809 -5.345675 0.000003 -17.123957 -5.452294 20.692944 0.000000 0.000007 -8.046044 18.740019 95.679947 30.243593 -0.000007 -0.000000 12.908780 4.934052 -1.129327 24.757151 0.000001 0.000022 0.182671 -1.483631 7.020438 3.599998 2.820854 -2.676900 0.000000 0.000005 -0.000001 9.599935 0.000008 0.061562 -0.000000 0.000001 -0.000004 -11.038937 0.000021 -0.000027 9.420015 20.077382 1.431255 -0.000000 45.093021 -0.000010 -2.759758 -0.000000 -0.000001 0.000001 38.174202 -0.000021 13.497354 7.222823 0.274583 0.000008 3.459908 0.000013 0.000003 0.000003 -0.000001 0.000016 -0.000001 -13.550147 -19.466744 0.000002 -0.000002 0.000006 0.000000 -3.436544 -0.000000 -0.000006 -0.000002 11.038935 0.000024 -0.000011 7.418077 -4.124178 -7.055491 0.000010 45.093014 0.000005 -3.934661 -0.000002 0.000001 0.000007 38.174221 0.000009 15.355536 -12.445711 4.522517 0.000004 3.459907 0.000006 0.000001 0.000000 -0.000001 -0.000003 -0.000011 -13.550159 2.850392 0.000004 -0.000001 0.000004 -0.000001 -4.223790 -0.000004 -0.000002 -0.000001 
4.939474 -90.335449 -94.873642 85.444307 -8.424882 1.296840 0.000001 -12.793800 2.116585 11.579564 -0.511457 -2.277997 0.000000 -8.721167 1.537773 -1.747239 0.035214 -0.378782 -0.000003 -8.822005 0.771817 -5.207698 -0.120843 -0.043448 0.000002 -8.855725 0.000003 -0.894976 0.277180 0.038426 0.000004 -11.385923 -1.138589 3.215914 1.054508 -1.108837 -0.000000 -6.705495 -0.586663 -0.755538 3.641160 0.021323 0.000002 -6.628808 -1.168834 4.209588 0.405283 -0.579866 -0.000000 -9.728077 0.000001 -0.000000 0.000000 -0.000000 0.000003 -8.132797 -5.345678 0.000005 18.568974 1.746820 -20.692953 -0.000008 -0.000003 3.421834 -28.352122 -86.795414 -30.243570 -0.000018 0.000002 7.689919 -18.895464 2.503865 -24.757174 0.000001 0.000010 -1.694472 13.902754 7.019016 -3.599992 2.820847 -2.676894 0.000010 -0.000003 -0.000001 -9.599953 0.000003 0.061540 0.000003 0.000001 -0.000000 0.000004 -8.132797 -5.345678 0.000004 -17.082219 -5.449265 20.692951 -0.000020 -0.000001 -7.759104 19.181572 95.457091 30.243587 -0.000024 0.000021 14.186366 5.807578 -1.465274 24.757166 -0.000014 0.000008 0.226108 -1.809112 7.125474 3.599991 2.820843 -2.676896 0.000001 -0.000003 -0.000000 9.599959 -0.000009 0.061552 -0.000001 0.000001 -0.000002 -11.038934 -0.000007 0.000007 9.408322 20.102736 1.433437 -0.000000 45.093029 0.000001 -2.747612 0.000001 0.000000 -0.000005 38.174213 0.000003 13.508711 7.230811 0.314666 -0.000001 3.459915 -0.000022 0.000000 -0.000003 0.000001 0.000005 0.000009 -13.550126 -19.401868 -0.000003 -0.000002 0.000003 -0.000000 -3.436559 -0.000000 -0.000004 -0.000000 11.038934 -0.000011 -0.000001 7.400130 -4.056360 -7.048387 -0.000005 45.093025 -0.000039 -3.911867 0.000000 -0.000000 0.000010 38.174213 -0.000018 15.410133 -12.480913 4.492512 0.000001 3.459930 0.000018 -0.000000 -0.000001 -0.000001 0.000004 -0.000004 -13.550135 2.715641 0.000005 0.000000 -0.000004 0.000000 -4.223796 0.000001 0.000001 0.000000 
